<svg xmlns="http://www.w3.org/2000/svg" width="48" height="48" fill="none"><circle cx="24" cy="24" r="23" stroke="#2D2D2D" stroke-width="2"></circle><path fill="#2D2D2D" fill-rule="evenodd" d="M16.38 30.7H13.8l-.85-15.3h18.7l.85 1.7h4.25C38.167 19.36 41 23.05 41 23.05v7.65h-2.648c-.14 1.406-1.14 2.55-2.863 2.55s-2.787-1.21-2.862-2.55H22.27a2.976 2.976 0 0 1-5.89 0m5.636-1.695a2.975 2.975 0 0 0-5.38-.002M39.3 26.451V29h-.97s-.916-1.664-2.793-1.679c-1.99-.016-2.91 1.679-2.91 1.679H32.5V18.8h3.4l3.4 5.1zm-.82-3.779.267.378h-.015l.569.85H34.2v-3.4h2.826zM14.65 17.1H30.8V29H15.5l-.177-2.479-.067-.92zm20.825 14.45a1.275 1.275 0 1 0 0-2.55 1.275 1.275 0 0 0 0 2.55m-16.15 0a1.275 1.275 0 1 0 0-2.55 1.275 1.275 0 0 0 0 2.55M9.55 22.2h1.7v1.7h-1.7zm1.7 3.4h2.266l.095 1.696-2.361.004zm4.007 0 .066.921.056.777 1.821.002v-1.7zm23.223-2.927-.936-1.323H35.05v1.7h3.682zM7 18.8h6.14l.094 1.7H7zm7.771-.009.122 1.709h4.857v-1.7zM12.068 22.2h1.26l.093 1.7h-1.353zm2.947 0 .121 1.7H18.9v-1.7z" clip-rule="evenodd"></path></svg>